/* XPM */
static char *_2033_c69ac8399aa0ae2f6334a5166371a30c2bfef6bdcf52d900032e88424d314d7c[] = {
/* columns rows colors chars-per-pixel */
"64 64 256 2 ",
"   c #020203",
".  c #070309",
"X  c #180607",
"o  c #020717",
"O  c #180A16",
"+  c #061519",
"@  c #18151A",
"#  c #0F1209",
"$  c #260404",
"%  c #360A04",
"&  c #281506",
"*  c #361406",
"=  c #281716",
"-  c #381A15",
";  c #260C18",
":  c #19271D",
">  c #2B2418",
",  c #392318",
"<  c #35250B",
"1  c #030324",
"2  c #010A25",
"3  c #020D2B",
"4  c #07022A",
"5  c #02132C",
"6  c #061827",
"7  c #171B27",
"8  c #010E36",
"9  c #021334",
"0  c #031C34",
"q  c #03143C",
"w  c #031D3B",
"e  c #0B1B39",
"r  c #151531",
"t  c #261A25",
"y  c #2A152B",
"u  c #1A262B",
"i  c #03233C",
"p  c #062738",
"a  c #192836",
"s  c #09373C",
"d  c #1A353C",
"f  c #0E292A",
"g  c #272628",
"h  c #372928",
"j  c #383427",
"k  c #292A36",
"l  c #372934",
"z  c #2A3439",
"x  c #383639",
"c  c #293829",
"v  c #4B1307",
"b  c #592705",
"n  c #462818",
"m  c #563519",
"M  c #4D2B17",
"N  c #653A18",
"B  c #6E3707",
"V  c #442A27",
"C  c #473829",
"Z  c #473939",
"A  c #533C3C",
"S  c #4F302E",
"D  c #69382B",
"F  c #67110F",
"G  c #0E473B",
"H  c #2C473C",
"J  c #754114",
"K  c #4C433C",
"L  c #45463A",
"P  c #56453C",
"I  c #554D37",
"U  c #754628",
"Y  c #6A4D36",
"T  c #031A43",
"R  c #2A1943",
"E  c #032443",
"W  c #042C4C",
"Q  c #072848",
"!  c #162A45",
"~  c #093548",
"^  c #143848",
"/  c #073754",
"(  c #173A59",
")  c #062E51",
"_  c #262A46",
"`  c #273747",
"'  c #383946",
"]  c #373B55",
"[  c #2C344B",
"{  c #443B43",
"}  c #4B3D44",
"|  c #463A47",
" . c #543D45",
".. c #463E59",
"X. c #623F4D",
"o. c #084549",
"O. c #184846",
"+. c #064558",
"@. c #154858",
"#. c #12544B",
"$. c #26454A",
"%. c #394649",
"&. c #37554B",
"*. c #294856",
"=. c #374856",
"-. c #385358",
";. c #28514E",
":. c #1A4663",
">. c #234866",
",. c #384C64",
"<. c #3B5366",
"1. c #375C77",
"2. c #2E5370",
"3. c #39657B",
"4. c #346F6D",
"5. c #156B60",
"6. c #434244",
"7. c #4C4443",
"8. c #44444C",
"9. c #4C444B",
"0. c #4C4B4C",
"q. c #4A4A47",
"w. c #534443",
"e. c #534A44",
"r. c #5B4C45",
"t. c #544C4A",
"y. c #5B4C4B",
"u. c #574448",
"i. c #4C5449",
"p. c #5C534C",
"a. c #555349",
"s. c #4C4B54",
"d. c #454855",
"f. c #544C52",
"g. c #584B57",
"h. c #495458",
"j. c #5D5353",
"k. c #5B545B",
"l. c #5C5A5C",
"z. c #555758",
"x. c #624B49",
"c. c #63524D",
"v. c #67554A",
"b. c #644B52",
"n. c #625453",
"m. c #62555B",
"M. c #675957",
"N. c #755957",
"B. c #785949",
"V. c #596459",
"C. c #446054",
"Z. c #68675A",
"A. c #756A57",
"S. c #72644C",
"D. c #4A5865",
"F. c #585A65",
"G. c #4A5973",
"H. c #665B66",
"J. c #6E5A69",
"K. c #4B6468",
"L. c #57656A",
"P. c #5A6875",
"I. c #507374",
"U. c #64646B",
"Y. c #696567",
"T. c #746768",
"R. c #68716B",
"E. c #686A75",
"W. c #766C75",
"Q. c #687579",
"!. c #74737A",
"~. c #797677",
"^. c #79736B",
"/. c #863B06",
"(. c #8B4B06",
"). c #8E5532",
"_. c #AF712C",
"`. c #9E5F1E",
"'. c #CA7138",
"]. c #8D6C4D",
"[. c #877778",
"{. c #8E716E",
"}. c #95665D",
"|. c #8D3D46",
" X c #2D9478",
".X c #63897B",
"XX c #AD844F",
"oX c #928574",
"OX c #B08E6B",
"+X c #C49259",
"@X c #3B6885",
"#X c #357789",
"$X c #167387",
"%X c #446B87",
"&X c #45738B",
"*X c #587C85",
"=X c #547491",
"-X c #697885",
";X c #777A84",
":X c #6C6E8D",
">X c #837C84",
",X c #937F8A",
"<X c #957C95",
"1X c #C97181",
"2X c #39848B",
"3X c #308790",
"4X c #189D9E",
"5X c #478997",
"6X c #578998",
"7X c #528F94",
"8X c #778487",
"9X c #798895",
"0X c #6A9499",
"qX c #79969B",
"wX c #6B8B8D",
"eX c #5598A6",
"rX c #4D99A9",
"tX c #779BA6",
"yX c #6E9AA7",
"uX c #59A4AE",
"iX c #6DA8B0",
"pX c #47B598",
"aX c #79B5C6",
"sX c #53C4D2",
"dX c #3ECDC4",
"fX c #878588",
"gX c #898B94",
"hX c #8A949A",
"jX c #95959A",
"kX c #948C8D",
"lX c #A89894",
"zX c #8799A5",
"xX c #979CA4",
"cX c #8E99B0",
"vX c #A69DA6",
"bX c #85A4A8",
"nX c #99A3A7",
"mX c #90AEB7",
"MX c #A7A3A7",
"NX c #AFB0B3",
"BX c #99A796",
"VX c #C8AF9A",
"CX c #CEC6B4",
"ZX c #F8DCBC",
"AX c #8EBAC3",
"SX c #B0B8C4",
"DX c #93CAD4",
"FX c #AFCAD3",
"GX c #B3E8EF",
"HX c #ACD8E4",
"JX c #D1D1CF",
"KX c #D6FAFD",
"LX c #CDEDF3",
"PX c #FBF7F8",
"IX c #F0F5F1",
"UX c #E0DFD5",
/* pixels */
"8 8 8 8 8 q 8 q 8 8 q 8 T 8 T T 8 8 T q q T T T 8 T T T T 3 q e 9 5 9 5 9 3 3 3 3 3 4 4 2 o 2 1 4 4 4 4 4 4 4 4 4 4 1 1 4 4 4 o ",
"9 q q 9 q q T q q T q T T T T T T T T T T T T T Q T T T ! E T 5 0 i 0 w 0 9 9 9 8 8 3 3 3 5 2 2 4 3 8 4 4 4 4 4 4 4 4 4 1 1 4 4 ",
"w i w w i w w E T E T i E T T T ! T Q W T Q ) ) Q ) ) ( s i ~ ~ E Q E E T T T T T q q q 9 8 3 5 8 3 8 3 3 3 3 2 2 2 2 2 2 2 1 1 ",
"E E E E Q E Q W E E Q Q Q Q Q T ) ) ) W ) ) ) ^ / ~ ~ ^ ^ d ^ s ^ ) ~ Q W ) T Q E T T w T q q q 9 5 9 8 9 3 3 5 3 3 2 3 2 2 2 2 ",
"W W ) ) ) ) ) ) W / ) / ) / / W ~ / ~ ~ ~ ~ ~ O.$.*.;.&.&.&.&.&.` ( ^ ~ ) ) ~ Q E W E E E w q 0 9 9 0 5 5 8 5 5 3 3 5 2 2 2 1 2 ",
"/ / / / / / / / / / / +./ / / +./ o.o.o.o.O.O.;.H &.V.v.V.Z.I i.;.*.@.^ ^ ~ ~ ~ E ~ ~ p i p i p p e 0 0 e 6 5 5 6 5 6 5 6 3 2 2 ",
"/ +./ +.+.+.+.+.+.+.+.+.+.+.+.+.#.o.o.#.#.;.&.&.V.Z.Z..XVXCXXXA.h.&.;.O.G o.o.s s s s p s p p p p i p p i 0 0 6 0 0 6 6 5 5 6 6 ",
"+.@.@.@.+.:.+.@.@.#.+.@.#.@.#.#.O.#.#.;.;.&.&.i.a.Z.A.OXZXZXOX].V.C.&.H $.O.G G G G s s s s s p p s p p p p p p p p p 0 0 5 5 6 ",
"*.=.=.*.-.-.*.*.*.*.*.*.*.*.;.-.*.*.<.-.-.h.C.V.Z.S.S.oXoXoX].S.Z.C.C.&.$.H #.O.O.O.G ^ s ^ d d s ~ Q s s p p p 0 p p p 0 0 0 5 ",
"` ( ` ` ^ ^ ` ` *.$.$.` $.$.$.$.*.*.O.*.*.=.%.8.H I V.v.Y Y S.v.a.L H H H H O.G d s s s ! ~ s p p p p p i p p p p p e 0 0 0 0 p ",
">.>.@.( ( *.>.>.~ ~ E s ~ ~ ~ W ) / ( ( a p f r H L a.Z..X].I -   # g : o o o o + 2 2 2 3 4 4 4 5 2 2 6 5 5 5 2 o 2 2 3 2 2 o 1 ",
"&X#X@X@X3.@X@X%X@X&X#X&X&X&X&X#X=X=XyXtXtXzXmXJXUXIXIXPXPXPXIXUXJXjXF.d.E.qXwXG.G.G.1.2.>.( / ( ! p i q 0 0 0 0 q i e w q 9 9 8 ",
">.>.( ( @.>.>.>.2.>.>.>.:.( :.( >.4.&X*X*XqXAXJXKXIXPXPXPXPXPXPXIXIXIXJXFXSXcX:X=X=X=X=X%X@X%X%X%XI.@X3.3.3.3.2.1.3.1.1.3.1.3.3.",
"d.,.,.D.<.<.D.,.,.<.,.,.,.,.,.,.<.<.h.-.=.%.h.z.Y.T.fXJXIXIXCXNXNXNXNXjX:XF.] a ! ! ! ( :.2.@X@X%X3.2.>.:.2.2.3.2.@X@X&X#X%X@X@X",
"6.6.| 8.8.8.8.8.d.8.8.8.0.d.d.s.h.j.Z.~.fXkXBXVXVXCXZXIXPXPXUXCXlXoX.XZ.9.x g 6 2 5 5 0 T Q ) / ^ i 5 2 1 5 0 E / ( :.>.>.:./ / ",
"K 7.K K K K 7.7.7.K K K 7.7.7.K  .P P P S P I Z.A.oXoXlXVXCXCXJXCXNXNXVXkX.XL.s.d.=.=.*.*.>.*.*.*.( ^ ! ! ) ! ) @.( / ~ E E T w ",
"u.u.t.q.q.i.q.7.e.w.P P w.7.K e.e.w.w.w.P P P K C C j > = & & > C Z K e.i.0.i.K 7.6.%.=.d.d.=.-.,.-.=.] ] ] %.,.=.*.*.*.*.*.[ ( ",
"y.r.t.a.t.q.t.a.e.r.r.x.r.e.i.e.r.r.r.u.w.e.w.e.e.a.e.P P v.Y P  .e.K Z Z L L H x x Z Z Z ' { ' z x ` x ' x z k ` ` ` [ %.' ] ' ",
"j.t.r.p.a.a.a.a.r.a.r.r.r.e.a.r.y.y.y.y.t.r.r.r.p.r.c.r.P x.x.P w.r.r.K L L L L L K 7.A { Z { x 6.x Z { ' { { ' x ' ' ' _ l x ' ",
"p.p.p.p.j.p.p.p.p.p.p.e.r.p.p.c.x.p.x.y.y.t.p.p.e.e.r.r.P r.p.x.P P r.e.a.a.e.7.w.r.t.u.w.q.e.K w.K } A S A  . .} } } { | | Z Z ",
"v.v.N.v.v.N.v.x.v.c.c.p.x.b.M.b.x.j.c.j.n.p.p.y.l.p.p.n.p.r.y.v.v.P c.P e.a.K t.e.u.y.u.P w.P P K w.r.r.w.A w.A w.w.} 7. . . . .",
"n.M.M.b.b.N.N.v.n.c.M.M.M.v.N.b.n.n.n.M.n.j.j.j.M.j.t.p.M.n.e.r.v.x.n.p.a.l.0.j.j.y.r.r.x.P I p.I p.p.I P x.r.v.w.w.u.e. .x. .X.",
"n.y.y.y.b.x.b.b.m.l.l.j.M.m.M.M.M.m.j.j.j.n.m.M.w.M.j.t.Z.M.j.Z.p.I j.a.f.l.f.m.H.g.y.b.M.v.I a.I z.L j A K L p.e.p.a.a.e.w.w.x.",
"l.6.Z 9. .Z  .M.V.V.z.h.f.z.m.H.Y.m.M.j.j.l.l.M.n.fX^.7.0.7.x e.p.L L x x d.| F.k.9.u.m.M.I P K i.V.L j e.e.j L i.z.Z.z.0.q.a.M.",
"L.L..Xg.H.!.x z.Q.Q.8XI.' F.z.U.7.j.f.m.Y.T.M.x x t.fX7.j.q.# 0.^.q.h.U.8XL.8.E.:X| X.J.Y.g C a.R.C.8XfX^.x 6.7.z.V.z.V.R.!.Y.0.",
"L.&.d.z.=.d.h.h.L.D.L.;X` k z %.l.f.7.kXfXq.Y.fXfXM.6.H.;Xq.s.W.fXE.fX9XE.d.] =.F.E.H.H.Y.y.N..Xc H ^.x 0.q.q.d.0.c ^.8XY.~.x   ",
"gXF.F.F.F.F.s.F.F.>XF.s.F.s.d.k.f.f.x H.W.f.Y.[.fX~.Y.f.h.z.~.gXR.xXY.u u a 7 k F.E.' | f.R.Y.j.NXMXs.0.H.W.g.f.x E.Y.8.m...T.m.",
"J.g...x d.E.F.F.;XJ.J.m.g.h F.!.F.Y.~.t.k.kX!.W.9.U.z.hXhXz.U.h.U.d.o @ 7 o o + U.F.8.H.{ k.Y.k.NXNX| | | k.| @ H.fXNXgXg.W.W.!.",
"O O t ..' =.8XH.<XJ.[.>Xb. .Z.V.~.0.q.x U.vX>X>X!.;XF.>X;X' d.!.E.;XF.D.%.=.L.!.;XH.H.W.H.J.kX>XE.f.| k ..b...| F.gXJXhX>XU.T.g.",
"J.g.s.K.$.z h.U.J.J.X.N.J.>XZ.a.6.8.!.vXkXH.U.>XkX;XU.%.z.Q.D.;XH.fXjXNXnXE.Y.nX;XW.Y.f.H.!.gXgXH.d.s.J.;XH.J.g.>Xd.o ' ;Xd.k.xX",
"] ] L.I.0X.XH .XT.p.y.[.J.R.hX.XR.Y.~.jXE.f.U.U.F.E.k.z.h.F.;XzX,X;XvXjX8XhXnXoXR.W.>X9.Z H.>XgX;XxXU.D.| ;XjX8XE.;XLXNXMXzXnXSX",
"E.D.$.-.I. XK.C.E.fXY.Z ~.V.qX.Xh.{ !.gXgXjXgXW.>XW.;XE.-.-XI.G.F.E.NXxX.XR.8XnX~.k.[.g.g H.;X!.g.' | ' !.SXhX-XQ.SXJX9X-Xh.d.D.",
"K.K.L.xXW.k.R.z.L.!.JX8XQ.jX!.Z.T.W.!.H.E.fX!.m.Y.kXfXQ.6X@X>.3XeXyX6XwX0X0XtXQ.d.7 H.J.k.;XfX;X| J.<X>XW.;X>XxXxXP.u u $.a _ _ ",
"-.h.R.F.W.m.y m.F.L.gXhXfXL.^.Z b.u.7.f.%.7 z.jXMX~.i.L.6XrXuXrXrXiXpX2XiX7XiXmXcX;Xs.k...W.NXvX>X,XkX>XgXmX;X%Xa ` =.=.` z ] [ ",
"<.<.K.;XfX6.W.Y.x ' 7 Q.SXY.W.[.[.A {.kXW.T.MX~.^.fXhX-XtXAXrX4X3XuX5XeX7X7X7XbXAXcXzXgX>XjXNXhXhXhXxXgXP.*.! ` -.*.` ` [ [ [ [ ",
"yXyXK.Q.%.Y.gXNXhXhXP.d.k g >XlXM.T.kX[.[.Y.x c R..XQ.tXAXeX3X4.2X5XrXuX XrX7X0XbXSXSXMXxXxXgXcXNXhXP.( ` 2.,.[ ` [ ` @ O X . { ",
"iXmXtX.X!.U.8X8XF.z a ` z z l.9.p.} C Z.A.j & 7.fX=..XyXuXeX2X5XuX5XiX2X2X2XeX0XiXFXnXxXhX8X9XhXC.$.` =.,.! _ ] ' t n P ].].U D ",
"+ &.L.H h.gXf.. o ` d f a %.F.z x S X c.{.P h q.z.qXiXuX5X5XiX2XrX3XrX2XuX5X5XyXmXtXtXqXzXgXL.d.%.-.$.` [ ] ] ' { X Y VXVX+XXX`.",
"E.-X> : Y.X O + . . 6 d d h.8XQ.z.k.[.oXY x.K @ wXtXiX7XeXeX5X5X2XeX5XpXuXaX7XAXmX0XzXqXqXxXP.=.u u u z [ r k t ; X M }.].N U B ",
"~.fXkX[.g.M.t.0.s.` f + K.bXQ.K.h.H.lXb.x.N.> Q.0X5X&X5XrX5X6X5X7XeXuXiXiXAXDXDXyXbX0XzX9XgXMXE.u : . o + O O . - P n $ % % D D ",
"vXNXNXVXvXlXlXlXMXxXzX8X8XQ.L.R.=.h.m.b.N.{ x 9X=X5XeXeXrX6X6XyXiXiXaXAXDXHXLX0XI.qXbXzXgXcX;X:XR ..G.:XF.' o . 0.Z & = l A S m.",
"lX,X[.[.{.,X,X>XW.>X;XW.F.x g L.E...9.W.V O !.-XyXeXrXuXaXaXaXAXDXDXDXGXGXLXSX;.P.L.h.-X;X=.r d.<X:X:X..y 7 t 7 c j : g H f.R ] ",
"m.f.m.Z.Z.Z.M. . .Z y y l Z y b.:Xd.:XF._ @ ] mXaXaXaXsXaXDXDXHXGXLXLXKXKXNXP.L.L.h.-XnX<X:XF.E.:XR 4 y r 4 @ g h j c > k ' 8.d.",
"{ ' 6.L Z x Z } | l l { O Z b.T.F.6 r o r a o =XHXGXGXGXGXGXLXLXKXKXPXFX.X%.h.F.z.z.gXhXF.E.F.R 1 R R y O y = = > : > u u z _ ! ",
"F.P.F.%.%.: @ k t . . ; X { r.f.=.o r e 1 e G.3.eXDXHXKXKXKXKXKXGXGXNX.XV.c x M.k.s.F.U.F.L.D.l O ; ; ; y h = Z r.M.0.u 7 r ! ! ",
"-XqX8XQ.Q.%.+ . 7 ' k.W.J.f.O u u p 2 ! G.,.=X@X4.4.4.0XAXFXFXmXtX.X.X.X.XA.t.e.t.h f.L.s.d.d.k ; O     = l l T.~.' x Q.hXG.] P.",
";X9X9X-X8X-XC.z k ' ] d.E.F.k z 6 . =.G.>.1.6X3.1.I.4.&.G H Q.qX.X.X0X.XoXoXZ , t X l.U.8.s.E.d.D.6 7 d.:X:XD.P.F.8XgXF.D.-.G.*X",
":X:X9X;XQ.qX-Xz ] D.-X-XP.-XI.Q.z a ,.2.@X@X@X%X X.X.X7XI.K.;X.XBX.XoX.XZ.C V S C C M.j.{ ' s.%.k d.zXzX9XcX:X] G.P.D.$.K.D.K.K.",
"F.P.=.D.F.D.k E.:Xd.=.2 2 u o o u a 1.2.@X@X&X*X*X0X7X6XQ.Q.@ , I I , & < j m N J m m P - A = g !.MX>XgXgXhXL.7 a f ] d ` h.P.&.",
"` d.=.| | 8.z d.[ o o e r o o 7   o ^ =X=X%X6X-X0X*XwXwXtXd.c C & m N J J m m J ).U m * % n , A vX>XjXgXkX!.z d.' z D.L.F.=.z 7 ",
"D.' k k k z @ o o 6 r a o o 7 .   g a =.:X-X-XhX.XbX0XtXP.7 y.V m J b b J J J (.B ].S - V S D $ h oX[.kXY.^.~.Q.E.D.h.D.F.F.' k ",
"..D.F.d.9.F.U.z.s.D.7 o o . . x x., j.F.h.-X!.L.Y.K.P.G.=.k { v < N J J J J `.`.XXS.t S ; $ % M M.Z.T.p.v.Y.R.z.U.E.D.k r a r k ",
"P.F.F.g.l.m.q.8.x ` =.' @ 0.Y.n.Y % Y A A N.Z.b.Z.z.o D.' | l ; Y ).).`.`.`._.XXXX< h g.y X $ Y S.I L I i.H z.M.g.l.I # -.7X4.G ",
"k k k k k l g l z @   @ Q.MXfX{.M ].B.n v.A x.x.h h H.E.gX!. .S B.Y Y ).].XX_.J j H _ R @ g S.].I j L L j a.h C  .- c H I.#.5.4X",
"k k k k g m.6.O # l %.Y.fXoXA.S.].VXVX{.B.n S - A.kX,XW...| X. .I j : G G #.#.#.#.K.a k x > B.m $ * - - j X M.N.A r.I G  XpXdXdX",
"y . l W.l h O # x !.~.^.~.v.v., U ].].}.x.$ n {.{.m.u.} Z  . .l j H G 5.5. X4X X3X2Xa k L v.< < % $ n X & v.A.N.P P I c H  X X X",
"t t t g ;   . = { Y.l.p.M.P < & m Y ].D S % V N.b.X.b.b.b.X.X. .j ;.5.4X4X4X4X4XsX5.f ' 0.Y.> > = = ; - V }.b.x.A I C & I Z & N.",
". @ Z g.w.j O . g h 6.7.> & n M P B.S n - * h  .J.{.>X{.,X{.{.{.x &.3XrXsXsXdXsX$Xp _ ' d.u :   @ O O l y X S S C n , & Y Y |.1X",
"U.!.>XW.W.[.^.T.s.x # X & - n n I m % % % % ; l '  .b.N.}.{.{.b.  ' <.=XeX5X$X8 o a _ R ] a + + + k k . y g.y.h < & n m D D F F ",
"!.!.U.j.g.M.H.H.Y.m.l & & < , * & % b v v n X ; l X V M $ v m X M.8.` a 2 2 o ! 7 o o _ _ e p f +   r _ ....u.K C < $ b v v v F ",
"g.g.g.g.g.y.u.f.g.g.m.u.= - S v b b F F F M % ;  .Z n M ].}.).I C z.k u + 6 f #   # + r _ e e o $.qXtXtX0XP.' # B.B.U |.D % v }.",
"g.d.9.f.t.9.f.g.f.s.g.p.C , S m F /.B `._.v S h ; ; D ].).U U M > c 6.k.%.%.#     : 6 d _ 4 4 L.mXbX0XtX=X9X;Xl.Y Y ).D D $ n  .",
"8.9.9.9.9.} | } { k.| u.P - n U `.`.'.'./.% $ S C V D U U B B I < ^.>X>Xs.h.i.H > z a p 1 ,.-XbX-X-XqXwX-XwXF.Y.h M M m D X.N.}.",
"9.| { { } 6.| 8.| | Z  .A V - % F /./.`.`.|.v & S C m N B J B U j L Z b.' s.6.7.k r a 6 :XcXwXI.-X-XE.*X-XK.U.t.A.B.m b $ |.{.<X"
};
